Coordinates
version=1
nRows=32
nColumns=12
inDegrees=yes

Units are S.I. units (second, meters, Newtons, ...)
Angles are in degrees

endheader
time	SC_y	SC_z	SC_x	AC_y	AC_z	AC_x	GH_y	GH_z	GH_yy	EL_x	PS_y
       0.0              -22.28          27.13          24.57          46.06          -14.4         -8.495         -84.92          30.89          38.83          133.5          6.697
   0.02846              -22.28          27.13          24.58          46.07          -14.4         -8.492         -84.89          30.88          38.81          133.5          6.714
   0.05692              -22.28          27.13          24.58          46.07          -14.4         -8.489         -84.86          30.88          38.79          133.5          6.733
   0.08539              -22.28          27.13          24.58          46.07          -14.4         -8.486         -84.83          30.87          38.76          133.4          6.753
    0.1138              -22.28          27.13          24.59          46.07          -14.4         -8.482          -84.8          30.86          38.74          133.4          6.774
    0.1423              -22.28          27.13          24.59          46.07          -14.4         -8.478         -84.77          30.86          38.71          133.4          6.796
    0.1708              -22.28          27.13           24.6          46.07          -14.4         -8.474         -84.73          30.85          38.68          133.4           6.82
    0.1992              -22.28          27.13           24.6          46.07          -14.4         -8.469          -84.7          30.85          38.65          133.4          6.846
    0.2277              -22.28          27.13          24.61          46.07          -14.4         -8.464         -84.66          30.84          38.62          133.3          6.873
    0.2562              -22.28          27.13          24.61          46.07          -14.4         -8.459         -84.61          30.83          38.58          133.3          6.903
    0.2846              -22.27          27.13          24.62          46.08         -14.39         -8.454         -84.57          30.82          38.54          133.3          6.935
    0.3131              -22.27          27.12          24.62          46.08         -14.39         -8.448         -84.52          30.81           38.5          133.2          6.969
    0.3415              -22.27          27.12          24.63          46.08         -14.39         -8.441         -84.46           30.8          38.46          133.2          7.005
      0.37              -22.27          27.12          24.64          46.08         -14.39         -8.434         -84.41          30.79          38.41          133.2          7.045
    0.3985              -22.27          27.12          24.65          46.08         -14.39         -8.427         -84.34          30.78          38.36          133.1          7.088
    0.4269              -22.27          27.12          24.65          46.08         -14.39         -8.418         -84.28          30.77           38.3          133.1          7.135
    0.4554              -22.27          27.12          24.66          46.09         -14.39          -8.41          -84.2          30.75          38.24          133.0          7.185
    0.4839              -22.27          27.12          24.67          46.09         -14.39           -8.4         -84.12          30.74          38.17          133.0           7.24
    0.5123              -22.26          27.12          24.68          46.09         -14.39         -8.389         -84.03          30.72           38.1          132.9          7.301
    0.5408              -22.26          27.12           24.7           46.1         -14.38         -8.378         -83.94          30.71          38.02          132.9          7.367
    0.5692              -22.26          27.11          24.71           46.1         -14.38         -8.365         -83.83          30.69          37.93          132.8          7.439
    0.5977              -22.26          27.11          24.72           46.1         -14.38         -8.351         -83.71          30.67          37.84          132.7          7.519
    0.6262              -22.26          27.11          24.74          46.11         -14.38         -8.335         -83.59          30.64          37.73          132.6          7.607
    0.6546              -22.25          27.11          24.76          46.11         -14.37         -8.318         -83.44          30.62          37.61          132.5          7.704
    0.6831              -22.25           27.1          24.78          46.12         -14.37         -8.299         -83.28          30.59          37.48          132.4          7.813
    0.7116              -22.25           27.1           24.8          46.12         -14.37         -8.278         -83.11          30.55          37.33          132.3          7.934
      0.74              -22.24           27.1          24.83          46.13         -14.37         -8.254         -82.91          30.52          37.17          132.2          8.069
    0.7685              -22.24           27.1          24.85          46.13         -14.36         -8.227         -82.69          30.48          36.98          132.0          8.222
    0.7969              -22.23          27.09          24.89          46.14         -14.36         -8.197         -82.44          30.43          36.77          131.9          8.394
    0.8254              -22.23          27.09          24.92          46.15         -14.35         -8.163         -82.15          30.38          36.54          131.7          8.589
    0.8539              -22.22          27.08          24.96          46.16         -14.35         -8.123         -81.82          30.32          36.27          131.5          8.813
    0.8823              -22.22          27.08          25.01          46.17         -14.34         -8.078         -81.45          30.25          35.96          131.2          9.069
